<?xml version="1.0" standalone="no"?>
<!DOCTYPE svg PUBLIC "-//W3C//DTD SVG 20010904//EN"
 "http://www.w3.org/TR/2001/REC-SVG-20010904/DTD/svg10.dtd">
<svg version="1.0" xmlns="http://www.w3.org/2000/svg"
 width="963.000000pt" height="869.000000pt" viewBox="0 0 963.000000 869.000000"
 preserveAspectRatio="xMidYMid meet">

<g transform="translate(0.000000,869.000000) scale(0.100000,-0.100000)"
fill="#000000" stroke="none">
<path d="M3527 854 c-69 -48 -85 -69 -43 -58 46 11 51 -17 51 -283 0 -134 2
-243 5 -243 3 0 22 33 42 73 39 76 135 187 162 187 28 0 47 -47 58 -147 6 -54
13 -100 14 -102 2 -2 21 10 43 25 47 33 47 35 30 194 -5 57 -17 116 -25 132
-25 48 -49 37 -146 -63 l-88 -92 0 200 c0 189 -5 223 -30 223 -3 0 -36 -21
-73 -46z"/>
<path d="M4414 857 c-59 -41 -76 -65 -42 -59 36 6 43 -33 43 -280 0 -131 2
-238 4 -238 2 0 26 14 54 32 l49 31 -7 271 c-4 149 -9 274 -12 279 -8 14 -29
6 -89 -36z"/>
<path d="M2905 790 l-79 -40 -16 -68 c-20 -81 -80 -242 -91 -242 -4 0 -11 10
-14 23 -12 39 -145 304 -166 331 -11 14 -26 26 -33 26 -18 0 -122 -69 -116
-78 3 -4 10 -6 16 -4 30 7 116 -147 209 -373 20 -49 38 -92 40 -93 2 -2 26 8
54 24 44 24 51 31 51 58 0 31 94 232 185 394 25 45 45 82 43 82 -2 0 -39 -18
-83 -40z"/>
<path d="M4996 795 c-67 -27 -137 -90 -169 -150 -68 -127 21 -329 159 -364 76
-19 164 18 237 99 71 79 81 144 30 195 -34 33 -61 32 -112 -6 l-42 -30 33 -22
c61 -42 74 -118 25 -152 -29 -20 -60 -19 -105 4 -135 70 -188 283 -91 366 41
33 97 34 136 1 28 -24 28 -24 64 -6 19 10 42 26 49 35 13 15 11 20 -9 36 -34
28 -129 25 -205 -6z"/>
<path d="M3028 772 c-42 -31 -46 -42 -20 -65 25 -23 41 -21 86 9 l38 26 -28
29 c-15 16 -30 29 -33 29 -3 -1 -23 -13 -43 -28z"/>
<path d="M3008 619 c-58 -40 -74 -61 -40 -52 33 8 43 -21 50 -156 l7 -132 49
31 48 31 -4 142 c-3 78 -8 150 -12 160 -12 26 -35 20 -98 -24z"/>
<path d="M3313 636 c-71 -41 -111 -76 -122 -107 -9 -26 -7 -34 13 -54 12 -12
47 -30 77 -38 65 -20 99 -42 99 -66 0 -42 -85 -29 -105 17 -13 29 -24 28 -64
-6 -44 -37 -38 -71 15 -97 48 -23 91 -10 159 46 105 86 100 142 -14 176 -31 9
-66 22 -78 31 -26 17 -30 40 -8 48 20 8 73 -14 84 -34 7 -13 14 -11 45 13 41
31 46 57 14 79 -31 22 -66 20 -115 -8z"/>
<path d="M4080 620 c-29 -22 -52 -40 -49 -41 2 0 17 -2 33 -3 18 -1 39 -14 59
-36 34 -38 40 -31 -56 -65 -106 -37 -152 -126 -90 -174 55 -44 111 -36 179 24
l39 34 -45 -2 c-55 -1 -107 18 -115 44 -8 25 -1 35 30 43 66 17 154 -41 191
-123 10 -23 22 -41 26 -41 5 0 26 12 48 26 l40 27 -56 106 c-80 151 -134 221
-172 221 -4 0 -33 -18 -62 -40z"/>
<path d="M5370 620 c-58 -43 -77 -67 -42 -56 40 13 52 -25 52 -161 0 -68 3
-123 6 -123 3 0 25 12 50 26 l44 26 0 88 c0 49 4 100 10 114 13 34 47 35 60 1
5 -14 13 -25 17 -25 5 1 26 17 48 36 l40 35 -20 37 c-11 20 -28 38 -37 40 -10
2 -39 -17 -68 -44 -46 -43 -50 -45 -50 -23 -1 80 -29 87 -110 29z"/>
</svg>
